<mxfile host="app.diagrams.net" modified="2021-08-08T15:28:04.201Z" agent="5.0 (Windows NT 10.0; Win64; x64) AppleWebKit/537.36 (KHTML, like Gecko) Chrome/91.0.4472.164 Safari/537.36" etag="lsy4an3pZgmRmCEh60fW" version="14.9.5" type="github">
  <diagram id="C5RBs43oDa-KdzZeNtuy" name="Page-1">
    <mxGraphModel dx="1117" dy="589" grid="1" gridSize="10" guides="1" tooltips="1" connect="1" arrows="1" fold="1" page="1" pageScale="1" pageWidth="1654" pageHeight="1169" math="0" shadow="0">
      <root>
        <mxCell id="WIyWlLk6GJQsqaUBKTNV-0" />
        <mxCell id="WIyWlLk6GJQsqaUBKTNV-1" parent="WIyWlLk6GJQsqaUBKTNV-0" />
        <mxCell id="tjoVgDpYeIoy6xXFeEll-1" value="崴崴好可愛" style="text;html=1;strokeColor=none;fillColor=none;align=center;verticalAlign=middle;whiteSpace=wrap;rounded=0;" parent="WIyWlLk6GJQsqaUBKTNV-1" vertex="1">
          <mxGeometry x="878" y="100" width="82" height="20" as="geometry" />
        </mxCell>
        <mxCell id="nteBSBuD71TsZTLeSuAN-41" value="" style="shape=umlLifeline;perimeter=lifelinePerimeter;whiteSpace=wrap;html=1;container=1;collapsible=0;recursiveResize=0;outlineConnect=0;size=250;" parent="WIyWlLk6GJQsqaUBKTNV-1" vertex="1">
          <mxGeometry x="40" y="320" width="260" height="690" as="geometry" />
        </mxCell>
        <mxCell id="nteBSBuD71TsZTLeSuAN-6" value="StartMenu" style="swimlane;fontStyle=2;align=center;verticalAlign=top;childLayout=stackLayout;horizontal=1;startSize=26;horizontalStack=0;resizeParent=1;resizeLast=0;collapsible=1;marginBottom=0;rounded=0;shadow=0;strokeWidth=1;" parent="nteBSBuD71TsZTLeSuAN-41" vertex="1">
          <mxGeometry y="14" width="110" height="216" as="geometry">
            <mxRectangle x="220" y="30" width="160" height="26" as="alternateBounds" />
          </mxGeometry>
        </mxCell>
        <mxCell id="nteBSBuD71TsZTLeSuAN-7" value="menu_win" style="text;align=left;verticalAlign=top;spacingLeft=4;spacingRight=4;overflow=hidden;rotatable=0;points=[[0,0.5],[1,0.5]];portConstraint=eastwest;" parent="nteBSBuD71TsZTLeSuAN-6" vertex="1">
          <mxGeometry y="26" width="110" height="26" as="geometry" />
        </mxCell>
        <mxCell id="nteBSBuD71TsZTLeSuAN-8" value="bg" style="text;align=left;verticalAlign=top;spacingLeft=4;spacingRight=4;overflow=hidden;rotatable=0;points=[[0,0.5],[1,0.5]];portConstraint=eastwest;rounded=0;shadow=0;html=0;" parent="nteBSBuD71TsZTLeSuAN-6" vertex="1">
          <mxGeometry y="52" width="110" height="26" as="geometry" />
        </mxCell>
        <mxCell id="nteBSBuD71TsZTLeSuAN-9" value="start_btn" style="text;align=left;verticalAlign=top;spacingLeft=4;spacingRight=4;overflow=hidden;rotatable=0;points=[[0,0.5],[1,0.5]];portConstraint=eastwest;rounded=0;shadow=0;html=0;" parent="nteBSBuD71TsZTLeSuAN-6" vertex="1">
          <mxGeometry y="78" width="110" height="26" as="geometry" />
        </mxCell>
        <mxCell id="nteBSBuD71TsZTLeSuAN-10" value="sound_btn" style="text;align=left;verticalAlign=top;spacingLeft=4;spacingRight=4;overflow=hidden;rotatable=0;points=[[0,0.5],[1,0.5]];portConstraint=eastwest;rounded=0;shadow=0;html=0;" parent="nteBSBuD71TsZTLeSuAN-6" vertex="1">
          <mxGeometry y="104" width="110" height="26" as="geometry" />
        </mxCell>
        <mxCell id="nteBSBuD71TsZTLeSuAN-11" value="mute_btn" style="text;align=left;verticalAlign=top;spacingLeft=4;spacingRight=4;overflow=hidden;rotatable=0;points=[[0,0.5],[1,0.5]];portConstraint=eastwest;rounded=0;shadow=0;html=0;" parent="nteBSBuD71TsZTLeSuAN-6" vertex="1">
          <mxGeometry y="130" width="110" height="26" as="geometry" />
        </mxCell>
        <mxCell id="nteBSBuD71TsZTLeSuAN-12" value="buttons" style="text;align=left;verticalAlign=top;spacingLeft=4;spacingRight=4;overflow=hidden;rotatable=0;points=[[0,0.5],[1,0.5]];portConstraint=eastwest;rounded=0;shadow=0;html=0;" parent="nteBSBuD71TsZTLeSuAN-6" vertex="1">
          <mxGeometry y="156" width="110" height="26" as="geometry" />
        </mxCell>
        <mxCell id="nteBSBuD71TsZTLeSuAN-14" value="" style="line;html=1;strokeWidth=1;align=left;verticalAlign=middle;spacingTop=-1;spacingLeft=3;spacingRight=3;rotatable=0;labelPosition=right;points=[];portConstraint=eastwest;" parent="nteBSBuD71TsZTLeSuAN-6" vertex="1">
          <mxGeometry y="182" width="110" height="8" as="geometry" />
        </mxCell>
        <mxCell id="nteBSBuD71TsZTLeSuAN-15" value="menu_run" style="text;align=left;verticalAlign=top;spacingLeft=4;spacingRight=4;overflow=hidden;rotatable=0;points=[[0,0.5],[1,0.5]];portConstraint=eastwest;" parent="nteBSBuD71TsZTLeSuAN-6" vertex="1">
          <mxGeometry y="190" width="110" height="26" as="geometry" />
        </mxCell>
        <mxCell id="nteBSBuD71TsZTLeSuAN-18" value="Buttons" style="swimlane;fontStyle=2;align=center;verticalAlign=top;childLayout=stackLayout;horizontal=1;startSize=26;horizontalStack=0;resizeParent=1;resizeLast=0;collapsible=1;marginBottom=0;rounded=0;shadow=0;strokeWidth=1;" parent="nteBSBuD71TsZTLeSuAN-41" vertex="1">
          <mxGeometry x="160" y="40" width="90" height="164" as="geometry">
            <mxRectangle x="220" y="30" width="160" height="26" as="alternateBounds" />
          </mxGeometry>
        </mxCell>
        <mxCell id="nteBSBuD71TsZTLeSuAN-19" value="frame" style="text;align=left;verticalAlign=top;spacingLeft=4;spacingRight=4;overflow=hidden;rotatable=0;points=[[0,0.5],[1,0.5]];portConstraint=eastwest;" parent="nteBSBuD71TsZTLeSuAN-18" vertex="1">
          <mxGeometry y="26" width="90" height="26" as="geometry" />
        </mxCell>
        <mxCell id="nteBSBuD71TsZTLeSuAN-20" value="rect" style="text;align=left;verticalAlign=top;spacingLeft=4;spacingRight=4;overflow=hidden;rotatable=0;points=[[0,0.5],[1,0.5]];portConstraint=eastwest;rounded=0;shadow=0;html=0;" parent="nteBSBuD71TsZTLeSuAN-18" vertex="1">
          <mxGeometry y="52" width="90" height="26" as="geometry" />
        </mxCell>
        <mxCell id="nteBSBuD71TsZTLeSuAN-25" value="" style="line;html=1;strokeWidth=1;align=left;verticalAlign=middle;spacingTop=-1;spacingLeft=3;spacingRight=3;rotatable=0;labelPosition=right;points=[];portConstraint=eastwest;" parent="nteBSBuD71TsZTLeSuAN-18" vertex="1">
          <mxGeometry y="78" width="90" height="8" as="geometry" />
        </mxCell>
        <mxCell id="nteBSBuD71TsZTLeSuAN-28" value="clicked" style="text;align=left;verticalAlign=top;spacingLeft=4;spacingRight=4;overflow=hidden;rotatable=0;points=[[0,0.5],[1,0.5]];portConstraint=eastwest;" parent="nteBSBuD71TsZTLeSuAN-18" vertex="1">
          <mxGeometry y="86" width="90" height="26" as="geometry" />
        </mxCell>
        <mxCell id="nteBSBuD71TsZTLeSuAN-27" value="create_frame" style="text;align=left;verticalAlign=top;spacingLeft=4;spacingRight=4;overflow=hidden;rotatable=0;points=[[0,0.5],[1,0.5]];portConstraint=eastwest;" parent="nteBSBuD71TsZTLeSuAN-18" vertex="1">
          <mxGeometry y="112" width="90" height="26" as="geometry" />
        </mxCell>
        <mxCell id="nteBSBuD71TsZTLeSuAN-26" value="draw_frame" style="text;align=left;verticalAlign=top;spacingLeft=4;spacingRight=4;overflow=hidden;rotatable=0;points=[[0,0.5],[1,0.5]];portConstraint=eastwest;" parent="nteBSBuD71TsZTLeSuAN-18" vertex="1">
          <mxGeometry y="138" width="90" height="26" as="geometry" />
        </mxCell>
        <mxCell id="nteBSBuD71TsZTLeSuAN-36" value="" style="endArrow=none;html=1;edgeStyle=orthogonalEdgeStyle;entryX=0;entryY=0.5;entryDx=0;entryDy=0;exitX=1;exitY=0.5;exitDx=0;exitDy=0;" parent="nteBSBuD71TsZTLeSuAN-41" source="nteBSBuD71TsZTLeSuAN-8" target="nteBSBuD71TsZTLeSuAN-19" edge="1">
          <mxGeometry relative="1" as="geometry">
            <mxPoint x="190" y="-180" as="sourcePoint" />
            <mxPoint x="350" y="-180" as="targetPoint" />
            <Array as="points" />
          </mxGeometry>
        </mxCell>
        <mxCell id="nteBSBuD71TsZTLeSuAN-37" value="1" style="edgeLabel;resizable=0;html=1;align=left;verticalAlign=bottom;" parent="nteBSBuD71TsZTLeSuAN-36" connectable="0" vertex="1">
          <mxGeometry x="-1" relative="1" as="geometry">
            <mxPoint y="1" as="offset" />
          </mxGeometry>
        </mxCell>
        <mxCell id="nteBSBuD71TsZTLeSuAN-38" value="3" style="edgeLabel;resizable=0;html=1;align=right;verticalAlign=bottom;" parent="nteBSBuD71TsZTLeSuAN-36" connectable="0" vertex="1">
          <mxGeometry x="1" relative="1" as="geometry" />
        </mxCell>
        <mxCell id="nteBSBuD71TsZTLeSuAN-75" value="" style="shape=umlLifeline;perimeter=lifelinePerimeter;whiteSpace=wrap;html=1;container=1;collapsible=0;recursiveResize=0;outlineConnect=0;size=430;" parent="WIyWlLk6GJQsqaUBKTNV-1" vertex="1">
          <mxGeometry x="350" y="120" width="380" height="910" as="geometry" />
        </mxCell>
        <mxCell id="nteBSBuD71TsZTLeSuAN-76" value="Game" style="swimlane;fontStyle=1;align=center;verticalAlign=top;childLayout=stackLayout;horizontal=1;startSize=26;horizontalStack=0;resizeParent=1;resizeParentMax=0;resizeLast=0;collapsible=1;marginBottom=0;" parent="nteBSBuD71TsZTLeSuAN-75" vertex="1">
          <mxGeometry y="20" width="160" height="154" as="geometry" />
        </mxCell>
        <mxCell id="nteBSBuD71TsZTLeSuAN-77" value="+ game_model: type&#xa;game_view&#xa;game_control" style="text;strokeColor=none;fillColor=none;align=left;verticalAlign=top;spacingLeft=4;spacingRight=4;overflow=hidden;rotatable=0;points=[[0,0.5],[1,0.5]];portConstraint=eastwest;" parent="nteBSBuD71TsZTLeSuAN-76" vertex="1">
          <mxGeometry y="26" width="160" height="94" as="geometry" />
        </mxCell>
        <mxCell id="nteBSBuD71TsZTLeSuAN-78" value="" style="line;strokeWidth=1;fillColor=none;align=left;verticalAlign=middle;spacingTop=-1;spacingLeft=3;spacingRight=3;rotatable=0;labelPosition=right;points=[];portConstraint=eastwest;" parent="nteBSBuD71TsZTLeSuAN-76" vertex="1">
          <mxGeometry y="120" width="160" height="8" as="geometry" />
        </mxCell>
        <mxCell id="nteBSBuD71TsZTLeSuAN-79" value="+ run(type): type" style="text;strokeColor=none;fillColor=none;align=left;verticalAlign=top;spacingLeft=4;spacingRight=4;overflow=hidden;rotatable=0;points=[[0,0.5],[1,0.5]];portConstraint=eastwest;" parent="nteBSBuD71TsZTLeSuAN-76" vertex="1">
          <mxGeometry y="128" width="160" height="26" as="geometry" />
        </mxCell>
        <mxCell id="WsGVlpXE8jQ94Zp9YOT2-1" value="GameControl" style="swimlane;fontStyle=1;align=center;verticalAlign=top;childLayout=stackLayout;horizontal=1;startSize=26;horizontalStack=0;resizeParent=1;resizeParentMax=0;resizeLast=0;collapsible=1;marginBottom=0;" parent="nteBSBuD71TsZTLeSuAN-75" vertex="1">
          <mxGeometry x="240" y="30" width="130" height="180" as="geometry" />
        </mxCell>
        <mxCell id="WsGVlpXE8jQ94Zp9YOT2-2" value="+model: type&#xa;view&#xa;events&#xa;request" style="text;strokeColor=none;fillColor=none;align=left;verticalAlign=top;spacingLeft=4;spacingRight=4;overflow=hidden;rotatable=0;points=[[0,0.5],[1,0.5]];portConstraint=eastwest;" parent="WsGVlpXE8jQ94Zp9YOT2-1" vertex="1">
          <mxGeometry y="26" width="130" height="64" as="geometry" />
        </mxCell>
        <mxCell id="WsGVlpXE8jQ94Zp9YOT2-3" value="" style="line;strokeWidth=1;fillColor=none;align=left;verticalAlign=middle;spacingTop=-1;spacingLeft=3;spacingRight=3;rotatable=0;labelPosition=right;points=[];portConstraint=eastwest;" parent="WsGVlpXE8jQ94Zp9YOT2-1" vertex="1">
          <mxGeometry y="90" width="130" height="8" as="geometry" />
        </mxCell>
        <mxCell id="WsGVlpXE8jQ94Zp9YOT2-4" value="+ method(type): type&#xa;+ update_model&#xa;+ receive_user_input&#xa;+ update_view&#xa;+ quit_game" style="text;strokeColor=none;fillColor=none;align=left;verticalAlign=top;spacingLeft=4;spacingRight=4;overflow=hidden;rotatable=0;points=[[0,0.5],[1,0.5]];portConstraint=eastwest;" parent="WsGVlpXE8jQ94Zp9YOT2-1" vertex="1">
          <mxGeometry y="98" width="130" height="82" as="geometry" />
        </mxCell>
        <mxCell id="WsGVlpXE8jQ94Zp9YOT2-5" value="" style="endArrow=none;html=1;edgeStyle=orthogonalEdgeStyle;entryX=0;entryY=0.5;entryDx=0;entryDy=0;" parent="nteBSBuD71TsZTLeSuAN-75" source="nteBSBuD71TsZTLeSuAN-77" target="WsGVlpXE8jQ94Zp9YOT2-2" edge="1">
          <mxGeometry relative="1" as="geometry">
            <mxPoint x="270" y="190" as="sourcePoint" />
            <mxPoint x="430" y="190" as="targetPoint" />
            <Array as="points">
              <mxPoint x="240" y="93" />
            </Array>
          </mxGeometry>
        </mxCell>
        <mxCell id="WsGVlpXE8jQ94Zp9YOT2-6" value="parent" style="edgeLabel;resizable=0;html=1;align=left;verticalAlign=bottom;" parent="WsGVlpXE8jQ94Zp9YOT2-5" connectable="0" vertex="1">
          <mxGeometry x="-1" relative="1" as="geometry" />
        </mxCell>
        <mxCell id="WsGVlpXE8jQ94Zp9YOT2-7" value="child" style="edgeLabel;resizable=0;html=1;align=right;verticalAlign=bottom;" parent="WsGVlpXE8jQ94Zp9YOT2-5" connectable="0" vertex="1">
          <mxGeometry x="1" relative="1" as="geometry" />
        </mxCell>
        <mxCell id="xVPf7gCmZr87tb3wmCdW-0" value="GameView" style="swimlane;fontStyle=1;align=center;verticalAlign=top;childLayout=stackLayout;horizontal=1;startSize=26;horizontalStack=0;resizeParent=1;resizeParentMax=0;resizeLast=0;collapsible=1;marginBottom=0;" parent="nteBSBuD71TsZTLeSuAN-75" vertex="1">
          <mxGeometry x="240" y="230" width="130" height="194" as="geometry" />
        </mxCell>
        <mxCell id="xVPf7gCmZr87tb3wmCdW-1" value="win&#xa;font" style="text;strokeColor=none;fillColor=none;align=left;verticalAlign=top;spacingLeft=4;spacingRight=4;overflow=hidden;rotatable=0;points=[[0,0.5],[1,0.5]];portConstraint=eastwest;" parent="xVPf7gCmZr87tb3wmCdW-0" vertex="1">
          <mxGeometry y="26" width="130" height="34" as="geometry" />
        </mxCell>
        <mxCell id="xVPf7gCmZr87tb3wmCdW-4" value="" style="line;strokeWidth=1;fillColor=none;align=left;verticalAlign=middle;spacingTop=-1;spacingLeft=3;spacingRight=3;rotatable=0;labelPosition=right;points=[];portConstraint=eastwest;" parent="xVPf7gCmZr87tb3wmCdW-0" vertex="1">
          <mxGeometry y="60" width="130" height="8" as="geometry" />
        </mxCell>
        <mxCell id="xVPf7gCmZr87tb3wmCdW-3" value="+ draw_bg&#xa;+ draw_enemies&#xa;+ draw_towers&#xa;+ draw_range&#xa;+ draw_menu&#xa;+ draw_plots&#xa;+ draw_money&#xa;+ draw_wave" style="text;strokeColor=none;fillColor=none;align=left;verticalAlign=top;spacingLeft=4;spacingRight=4;overflow=hidden;rotatable=0;points=[[0,0.5],[1,0.5]];portConstraint=eastwest;" parent="xVPf7gCmZr87tb3wmCdW-0" vertex="1">
          <mxGeometry y="68" width="130" height="118" as="geometry" />
        </mxCell>
        <mxCell id="xVPf7gCmZr87tb3wmCdW-2" value="" style="line;strokeWidth=1;fillColor=none;align=left;verticalAlign=middle;spacingTop=-1;spacingLeft=3;spacingRight=3;rotatable=0;labelPosition=right;points=[];portConstraint=eastwest;" parent="xVPf7gCmZr87tb3wmCdW-0" vertex="1">
          <mxGeometry y="186" width="130" height="8" as="geometry" />
        </mxCell>
        <mxCell id="_9xJ0etyTuwBOQNqY4Xb-1" style="edgeStyle=orthogonalEdgeStyle;rounded=0;orthogonalLoop=1;jettySize=auto;html=1;exitX=1;exitY=0.5;exitDx=0;exitDy=0;entryX=0;entryY=0.5;entryDx=0;entryDy=0;" edge="1" parent="nteBSBuD71TsZTLeSuAN-75" source="nteBSBuD71TsZTLeSuAN-77" target="xVPf7gCmZr87tb3wmCdW-3">
          <mxGeometry relative="1" as="geometry" />
        </mxCell>
        <mxCell id="nteBSBuD71TsZTLeSuAN-73" value="" style="endArrow=open;endFill=1;endSize=12;html=1;" parent="WIyWlLk6GJQsqaUBKTNV-1" source="nteBSBuD71TsZTLeSuAN-41" target="nteBSBuD71TsZTLeSuAN-75" edge="1">
          <mxGeometry width="160" relative="1" as="geometry">
            <mxPoint x="380" y="940" as="sourcePoint" />
            <mxPoint x="540" y="940" as="targetPoint" />
          </mxGeometry>
        </mxCell>
        <mxCell id="nteBSBuD71TsZTLeSuAN-74" value="start_btn.clicked" style="edgeLabel;html=1;align=center;verticalAlign=middle;resizable=0;points=[];" parent="nteBSBuD71TsZTLeSuAN-73" vertex="1" connectable="0">
          <mxGeometry x="0.1049" relative="1" as="geometry">
            <mxPoint x="-1" as="offset" />
          </mxGeometry>
        </mxCell>
        <mxCell id="nteBSBuD71TsZTLeSuAN-80" value="" style="endArrow=open;endFill=1;endSize=12;html=1;" parent="WIyWlLk6GJQsqaUBKTNV-1" source="nteBSBuD71TsZTLeSuAN-75" target="WsGVlpXE8jQ94Zp9YOT2-0" edge="1">
          <mxGeometry width="160" relative="1" as="geometry">
            <mxPoint x="560.0014285714283" y="730" as="sourcePoint" />
            <mxPoint x="900.4300000000001" y="730" as="targetPoint" />
          </mxGeometry>
        </mxCell>
        <mxCell id="nteBSBuD71TsZTLeSuAN-81" value="&lt;span style=&quot;font-size: 11px&quot;&gt;game_control.receive_user_input()&lt;br&gt;game_control.update_model()&lt;br&gt;game_control.update_view()&lt;/span&gt;" style="edgeLabel;html=1;align=center;verticalAlign=middle;resizable=0;points=[];" parent="nteBSBuD71TsZTLeSuAN-80" vertex="1" connectable="0">
          <mxGeometry x="0.1049" relative="1" as="geometry">
            <mxPoint x="4" y="-10" as="offset" />
          </mxGeometry>
        </mxCell>
        <mxCell id="WsGVlpXE8jQ94Zp9YOT2-0" value=":Object" style="shape=umlLifeline;perimeter=lifelinePerimeter;whiteSpace=wrap;html=1;container=1;collapsible=0;recursiveResize=0;outlineConnect=0;size=260;" parent="WIyWlLk6GJQsqaUBKTNV-1" vertex="1">
          <mxGeometry x="790" y="330" width="340" height="710" as="geometry" />
        </mxCell>
        <mxCell id="0SJmJpMR81CniCjTsvdg-0" value="GreenEnemy" style="swimlane;fontStyle=1;align=center;verticalAlign=top;childLayout=stackLayout;horizontal=1;startSize=26;horizontalStack=0;resizeParent=1;resizeParentMax=0;resizeLast=0;collapsible=1;marginBottom=0;" parent="WIyWlLk6GJQsqaUBKTNV-1" vertex="1">
          <mxGeometry x="1640" y="390" width="160" height="108" as="geometry" />
        </mxCell>
        <mxCell id="0SJmJpMR81CniCjTsvdg-1" value="+ health: int&#xa;+ path: list&#xa;" style="text;strokeColor=none;fillColor=none;align=left;verticalAlign=top;spacingLeft=4;spacingRight=4;overflow=hidden;rotatable=0;points=[[0,0.5],[1,0.5]];portConstraint=eastwest;" parent="0SJmJpMR81CniCjTsvdg-0" vertex="1">
          <mxGeometry y="26" width="160" height="34" as="geometry" />
        </mxCell>
        <mxCell id="0SJmJpMR81CniCjTsvdg-2" value="" style="line;strokeWidth=1;fillColor=none;align=left;verticalAlign=middle;spacingTop=-1;spacingLeft=3;spacingRight=3;rotatable=0;labelPosition=right;points=[];portConstraint=eastwest;" parent="0SJmJpMR81CniCjTsvdg-0" vertex="1">
          <mxGeometry y="60" width="160" height="8" as="geometry" />
        </mxCell>
        <mxCell id="0SJmJpMR81CniCjTsvdg-3" value="+ move()&#xa;+ draw()" style="text;strokeColor=none;fillColor=none;align=left;verticalAlign=top;spacingLeft=4;spacingRight=4;overflow=hidden;rotatable=0;points=[[0,0.5],[1,0.5]];portConstraint=eastwest;" parent="0SJmJpMR81CniCjTsvdg-0" vertex="1">
          <mxGeometry y="68" width="160" height="40" as="geometry" />
        </mxCell>
        <mxCell id="0SJmJpMR81CniCjTsvdg-4" value="RedEnemy" style="swimlane;fontStyle=1;align=center;verticalAlign=top;childLayout=stackLayout;horizontal=1;startSize=26;horizontalStack=0;resizeParent=1;resizeParentMax=0;resizeLast=0;collapsible=1;marginBottom=0;" parent="WIyWlLk6GJQsqaUBKTNV-1" vertex="1">
          <mxGeometry x="1640" y="511" width="160" height="108" as="geometry" />
        </mxCell>
        <mxCell id="0SJmJpMR81CniCjTsvdg-5" value="+ health: int&#xa;+ path: list&#xa;" style="text;strokeColor=none;fillColor=none;align=left;verticalAlign=top;spacingLeft=4;spacingRight=4;overflow=hidden;rotatable=0;points=[[0,0.5],[1,0.5]];portConstraint=eastwest;" parent="0SJmJpMR81CniCjTsvdg-4" vertex="1">
          <mxGeometry y="26" width="160" height="34" as="geometry" />
        </mxCell>
        <mxCell id="0SJmJpMR81CniCjTsvdg-6" value="" style="line;strokeWidth=1;fillColor=none;align=left;verticalAlign=middle;spacingTop=-1;spacingLeft=3;spacingRight=3;rotatable=0;labelPosition=right;points=[];portConstraint=eastwest;" parent="0SJmJpMR81CniCjTsvdg-4" vertex="1">
          <mxGeometry y="60" width="160" height="8" as="geometry" />
        </mxCell>
        <mxCell id="0SJmJpMR81CniCjTsvdg-7" value="+ move()&#xa;+ draw()" style="text;strokeColor=none;fillColor=none;align=left;verticalAlign=top;spacingLeft=4;spacingRight=4;overflow=hidden;rotatable=0;points=[[0,0.5],[1,0.5]];portConstraint=eastwest;" parent="0SJmJpMR81CniCjTsvdg-4" vertex="1">
          <mxGeometry y="68" width="160" height="40" as="geometry" />
        </mxCell>
        <mxCell id="0SJmJpMR81CniCjTsvdg-8" value="PurpleEnemy" style="swimlane;fontStyle=1;align=center;verticalAlign=top;childLayout=stackLayout;horizontal=1;startSize=26;horizontalStack=0;resizeParent=1;resizeParentMax=0;resizeLast=0;collapsible=1;marginBottom=0;" parent="WIyWlLk6GJQsqaUBKTNV-1" vertex="1">
          <mxGeometry x="1640" y="632" width="160" height="108" as="geometry" />
        </mxCell>
        <mxCell id="0SJmJpMR81CniCjTsvdg-9" value="+ health: int&#xa;+ path: list&#xa;" style="text;strokeColor=none;fillColor=none;align=left;verticalAlign=top;spacingLeft=4;spacingRight=4;overflow=hidden;rotatable=0;points=[[0,0.5],[1,0.5]];portConstraint=eastwest;" parent="0SJmJpMR81CniCjTsvdg-8" vertex="1">
          <mxGeometry y="26" width="160" height="34" as="geometry" />
        </mxCell>
        <mxCell id="0SJmJpMR81CniCjTsvdg-10" value="" style="line;strokeWidth=1;fillColor=none;align=left;verticalAlign=middle;spacingTop=-1;spacingLeft=3;spacingRight=3;rotatable=0;labelPosition=right;points=[];portConstraint=eastwest;" parent="0SJmJpMR81CniCjTsvdg-8" vertex="1">
          <mxGeometry y="60" width="160" height="8" as="geometry" />
        </mxCell>
        <mxCell id="0SJmJpMR81CniCjTsvdg-11" value="+ move()&#xa;+ draw()" style="text;strokeColor=none;fillColor=none;align=left;verticalAlign=top;spacingLeft=4;spacingRight=4;overflow=hidden;rotatable=0;points=[[0,0.5],[1,0.5]];portConstraint=eastwest;" parent="0SJmJpMR81CniCjTsvdg-8" vertex="1">
          <mxGeometry y="68" width="160" height="40" as="geometry" />
        </mxCell>
        <mxCell id="0SJmJpMR81CniCjTsvdg-12" value="BlackEnemy" style="swimlane;fontStyle=1;align=center;verticalAlign=top;childLayout=stackLayout;horizontal=1;startSize=26;horizontalStack=0;resizeParent=1;resizeParentMax=0;resizeLast=0;collapsible=1;marginBottom=0;" parent="WIyWlLk6GJQsqaUBKTNV-1" vertex="1">
          <mxGeometry x="1640" y="750" width="160" height="108" as="geometry" />
        </mxCell>
        <mxCell id="0SJmJpMR81CniCjTsvdg-13" value="+ health: int&#xa;+ path: list&#xa;" style="text;strokeColor=none;fillColor=none;align=left;verticalAlign=top;spacingLeft=4;spacingRight=4;overflow=hidden;rotatable=0;points=[[0,0.5],[1,0.5]];portConstraint=eastwest;" parent="0SJmJpMR81CniCjTsvdg-12" vertex="1">
          <mxGeometry y="26" width="160" height="34" as="geometry" />
        </mxCell>
        <mxCell id="0SJmJpMR81CniCjTsvdg-14" value="" style="line;strokeWidth=1;fillColor=none;align=left;verticalAlign=middle;spacingTop=-1;spacingLeft=3;spacingRight=3;rotatable=0;labelPosition=right;points=[];portConstraint=eastwest;" parent="0SJmJpMR81CniCjTsvdg-12" vertex="1">
          <mxGeometry y="60" width="160" height="8" as="geometry" />
        </mxCell>
        <mxCell id="0SJmJpMR81CniCjTsvdg-15" value="+ move()&#xa;+ draw()" style="text;strokeColor=none;fillColor=none;align=left;verticalAlign=top;spacingLeft=4;spacingRight=4;overflow=hidden;rotatable=0;points=[[0,0.5],[1,0.5]];portConstraint=eastwest;" parent="0SJmJpMR81CniCjTsvdg-12" vertex="1">
          <mxGeometry y="68" width="160" height="40" as="geometry" />
        </mxCell>
        <mxCell id="0SJmJpMR81CniCjTsvdg-16" value="EnemyGroup" style="swimlane;fontStyle=1;align=center;verticalAlign=top;childLayout=stackLayout;horizontal=1;startSize=26;horizontalStack=0;resizeParent=1;resizeParentMax=0;resizeLast=0;collapsible=1;marginBottom=0;" parent="WIyWlLk6GJQsqaUBKTNV-1" vertex="1">
          <mxGeometry x="800" y="340" width="160" height="160" as="geometry">
            <mxRectangle x="1200" y="520" width="110" height="26" as="alternateBounds" />
          </mxGeometry>
        </mxCell>
        <mxCell id="0SJmJpMR81CniCjTsvdg-17" value="+ field: type" style="text;strokeColor=none;fillColor=none;align=left;verticalAlign=top;spacingLeft=4;spacingRight=4;overflow=hidden;rotatable=0;points=[[0,0.5],[1,0.5]];portConstraint=eastwest;" parent="0SJmJpMR81CniCjTsvdg-16" vertex="1">
          <mxGeometry y="26" width="160" height="26" as="geometry" />
        </mxCell>
        <mxCell id="0SJmJpMR81CniCjTsvdg-18" value="" style="line;strokeWidth=1;fillColor=none;align=left;verticalAlign=middle;spacingTop=-1;spacingLeft=3;spacingRight=3;rotatable=0;labelPosition=right;points=[];portConstraint=eastwest;" parent="0SJmJpMR81CniCjTsvdg-16" vertex="1">
          <mxGeometry y="52" width="160" height="8" as="geometry" />
        </mxCell>
        <mxCell id="0SJmJpMR81CniCjTsvdg-19" value="+ advance()&#xa;+ draw()&#xa;+ campaign()&#xa;+ add()&#xa;+ get()&#xa;+ retreat()" style="text;strokeColor=none;fillColor=none;align=left;verticalAlign=top;spacingLeft=4;spacingRight=4;overflow=hidden;rotatable=0;points=[[0,0.5],[1,0.5]];portConstraint=eastwest;" parent="0SJmJpMR81CniCjTsvdg-16" vertex="1">
          <mxGeometry y="60" width="160" height="100" as="geometry" />
        </mxCell>
        <mxCell id="PEocMXkibnuBXIMPjLkJ-3" value="" style="endArrow=open;endFill=1;endSize=12;html=1;" parent="WIyWlLk6GJQsqaUBKTNV-1" source="WsGVlpXE8jQ94Zp9YOT2-0" target="nteBSBuD71TsZTLeSuAN-75" edge="1">
          <mxGeometry width="160" relative="1" as="geometry">
            <mxPoint x="930" y="720" as="sourcePoint" />
            <mxPoint x="800" y="720" as="targetPoint" />
            <Array as="points">
              <mxPoint x="850" y="740" />
            </Array>
          </mxGeometry>
        </mxCell>
        <mxCell id="PEocMXkibnuBXIMPjLkJ-4" value="generate_enemies" style="edgeLabel;html=1;align=center;verticalAlign=middle;resizable=0;points=[];" parent="WIyWlLk6GJQsqaUBKTNV-1" vertex="1" connectable="0">
          <mxGeometry x="752" y="740" as="geometry">
            <mxPoint x="-6" y="1" as="offset" />
          </mxGeometry>
        </mxCell>
        <mxCell id="PEocMXkibnuBXIMPjLkJ-5" value="" style="endArrow=open;endFill=1;endSize=12;html=1;" parent="WIyWlLk6GJQsqaUBKTNV-1" source="WsGVlpXE8jQ94Zp9YOT2-0" target="nteBSBuD71TsZTLeSuAN-75" edge="1">
          <mxGeometry width="160" relative="1" as="geometry">
            <mxPoint x="640" y="830" as="sourcePoint" />
            <mxPoint x="800" y="830" as="targetPoint" />
            <Array as="points">
              <mxPoint x="610" y="780" />
              <mxPoint x="580" y="780" />
            </Array>
          </mxGeometry>
        </mxCell>
        <mxCell id="PEocMXkibnuBXIMPjLkJ-6" value="receive_user_input" style="edgeLabel;html=1;align=center;verticalAlign=middle;resizable=0;points=[];" parent="WIyWlLk6GJQsqaUBKTNV-1" vertex="1" connectable="0">
          <mxGeometry x="752" y="780" as="geometry">
            <mxPoint x="-6" y="1" as="offset" />
          </mxGeometry>
        </mxCell>
        <mxCell id="PEocMXkibnuBXIMPjLkJ-9" value="" style="endArrow=open;endFill=1;endSize=12;html=1;" parent="WIyWlLk6GJQsqaUBKTNV-1" source="nteBSBuD71TsZTLeSuAN-75" target="WsGVlpXE8jQ94Zp9YOT2-0" edge="1">
          <mxGeometry width="160" relative="1" as="geometry">
            <mxPoint x="550" y="830" as="sourcePoint" />
            <mxPoint x="800" y="830" as="targetPoint" />
            <Array as="points">
              <mxPoint x="870" y="830" />
            </Array>
          </mxGeometry>
        </mxCell>
        <mxCell id="PEocMXkibnuBXIMPjLkJ-10" value="" style="text;strokeColor=none;fillColor=none;align=left;verticalAlign=middle;spacingTop=-1;spacingLeft=4;spacingRight=4;rotatable=0;labelPosition=right;points=[];portConstraint=eastwest;" parent="WIyWlLk6GJQsqaUBKTNV-1" vertex="1">
          <mxGeometry x="1040" y="666" width="100" height="244" as="geometry" />
        </mxCell>
        <mxCell id="PEocMXkibnuBXIMPjLkJ-12" value="打開遊戲&lt;br&gt;點擊開始鍵(user)&lt;br&gt;生成敵人(sys)&lt;br&gt;波數+1(sys)&lt;br&gt;點擊空白塔位(user)&lt;br&gt;生成menu(sys)&lt;br&gt;點擊防禦塔(user)&lt;br&gt;生成防禦塔(sys)&lt;br&gt;錢減少(sys)&lt;br&gt;塔與敵人碰撞觸發攻擊(sys)" style="text;html=1;strokeColor=none;fillColor=none;align=center;verticalAlign=middle;whiteSpace=wrap;rounded=0;" parent="WIyWlLk6GJQsqaUBKTNV-1" vertex="1">
          <mxGeometry x="1150" y="220" width="200" height="210" as="geometry" />
        </mxCell>
        <mxCell id="_nXWcierhaTBSfkVUFGh-2" value="Vacancy" style="swimlane;fontStyle=1;align=center;verticalAlign=top;childLayout=stackLayout;horizontal=1;startSize=26;horizontalStack=0;resizeParent=1;resizeParentMax=0;resizeLast=0;collapsible=1;marginBottom=0;" parent="WIyWlLk6GJQsqaUBKTNV-1" vertex="1">
          <mxGeometry x="1400" y="520" width="160" height="90" as="geometry">
            <mxRectangle x="1200" y="520" width="110" height="26" as="alternateBounds" />
          </mxGeometry>
        </mxCell>
        <mxCell id="_nXWcierhaTBSfkVUFGh-3" value="+ field: type" style="text;strokeColor=none;fillColor=none;align=left;verticalAlign=top;spacingLeft=4;spacingRight=4;overflow=hidden;rotatable=0;points=[[0,0.5],[1,0.5]];portConstraint=eastwest;" parent="_nXWcierhaTBSfkVUFGh-2" vertex="1">
          <mxGeometry y="26" width="160" height="26" as="geometry" />
        </mxCell>
        <mxCell id="_nXWcierhaTBSfkVUFGh-4" value="" style="line;strokeWidth=1;fillColor=none;align=left;verticalAlign=middle;spacingTop=-1;spacingLeft=3;spacingRight=3;rotatable=0;labelPosition=right;points=[];portConstraint=eastwest;" parent="_nXWcierhaTBSfkVUFGh-2" vertex="1">
          <mxGeometry y="52" width="160" height="8" as="geometry" />
        </mxCell>
        <mxCell id="_nXWcierhaTBSfkVUFGh-5" value="+ clicked()" style="text;strokeColor=none;fillColor=none;align=left;verticalAlign=top;spacingLeft=4;spacingRight=4;overflow=hidden;rotatable=0;points=[[0,0.5],[1,0.5]];portConstraint=eastwest;" parent="_nXWcierhaTBSfkVUFGh-2" vertex="1">
          <mxGeometry y="60" width="160" height="30" as="geometry" />
        </mxCell>
        <mxCell id="_nXWcierhaTBSfkVUFGh-6" value="Tower" style="swimlane;fontStyle=1;align=center;verticalAlign=top;childLayout=stackLayout;horizontal=1;startSize=26;horizontalStack=0;resizeParent=1;resizeParentMax=0;resizeLast=0;collapsible=1;marginBottom=0;" parent="WIyWlLk6GJQsqaUBKTNV-1" vertex="1">
          <mxGeometry x="1400" y="630" width="160" height="160" as="geometry">
            <mxRectangle x="1200" y="520" width="110" height="26" as="alternateBounds" />
          </mxGeometry>
        </mxCell>
        <mxCell id="_nXWcierhaTBSfkVUFGh-7" value="+ field: type" style="text;strokeColor=none;fillColor=none;align=left;verticalAlign=top;spacingLeft=4;spacingRight=4;overflow=hidden;rotatable=0;points=[[0,0.5],[1,0.5]];portConstraint=eastwest;" parent="_nXWcierhaTBSfkVUFGh-6" vertex="1">
          <mxGeometry y="26" width="160" height="26" as="geometry" />
        </mxCell>
        <mxCell id="_nXWcierhaTBSfkVUFGh-8" value="" style="line;strokeWidth=1;fillColor=none;align=left;verticalAlign=middle;spacingTop=-1;spacingLeft=3;spacingRight=3;rotatable=0;labelPosition=right;points=[];portConstraint=eastwest;" parent="_nXWcierhaTBSfkVUFGh-6" vertex="1">
          <mxGeometry y="52" width="160" height="8" as="geometry" />
        </mxCell>
        <mxCell id="_nXWcierhaTBSfkVUFGh-9" value="+ attack()&#xa;+ get_upgrade_cost()&#xa;+ get_cost()&#xa;+ range()&#xa;+ damage()&#xa;+clicked()&#xa;" style="text;strokeColor=none;fillColor=none;align=left;verticalAlign=top;spacingLeft=4;spacingRight=4;overflow=hidden;rotatable=0;points=[[0,0.5],[1,0.5]];portConstraint=eastwest;" parent="_nXWcierhaTBSfkVUFGh-6" vertex="1">
          <mxGeometry y="60" width="160" height="100" as="geometry" />
        </mxCell>
        <mxCell id="_nXWcierhaTBSfkVUFGh-10" value="SingleAttack" style="swimlane;fontStyle=1;align=center;verticalAlign=top;childLayout=stackLayout;horizontal=1;startSize=26;horizontalStack=0;resizeParent=1;resizeParentMax=0;resizeLast=0;collapsible=1;marginBottom=0;" parent="WIyWlLk6GJQsqaUBKTNV-1" vertex="1">
          <mxGeometry x="1400" y="810" width="160" height="90" as="geometry">
            <mxRectangle x="1200" y="520" width="110" height="26" as="alternateBounds" />
          </mxGeometry>
        </mxCell>
        <mxCell id="_nXWcierhaTBSfkVUFGh-11" value="+ field: type" style="text;strokeColor=none;fillColor=none;align=left;verticalAlign=top;spacingLeft=4;spacingRight=4;overflow=hidden;rotatable=0;points=[[0,0.5],[1,0.5]];portConstraint=eastwest;" parent="_nXWcierhaTBSfkVUFGh-10" vertex="1">
          <mxGeometry y="26" width="160" height="26" as="geometry" />
        </mxCell>
        <mxCell id="_nXWcierhaTBSfkVUFGh-12" value="" style="line;strokeWidth=1;fillColor=none;align=left;verticalAlign=middle;spacingTop=-1;spacingLeft=3;spacingRight=3;rotatable=0;labelPosition=right;points=[];portConstraint=eastwest;" parent="_nXWcierhaTBSfkVUFGh-10" vertex="1">
          <mxGeometry y="52" width="160" height="8" as="geometry" />
        </mxCell>
        <mxCell id="_nXWcierhaTBSfkVUFGh-13" value="+ attack()" style="text;strokeColor=none;fillColor=none;align=left;verticalAlign=top;spacingLeft=4;spacingRight=4;overflow=hidden;rotatable=0;points=[[0,0.5],[1,0.5]];portConstraint=eastwest;" parent="_nXWcierhaTBSfkVUFGh-10" vertex="1">
          <mxGeometry y="60" width="160" height="30" as="geometry" />
        </mxCell>
        <mxCell id="HDqix5Ern4VF48CfTh6k-1" value="AOE" style="swimlane;fontStyle=1;align=center;verticalAlign=top;childLayout=stackLayout;horizontal=1;startSize=26;horizontalStack=0;resizeParent=1;resizeParentMax=0;resizeLast=0;collapsible=1;marginBottom=0;" parent="WIyWlLk6GJQsqaUBKTNV-1" vertex="1">
          <mxGeometry x="1400" y="910" width="160" height="90" as="geometry">
            <mxRectangle x="1200" y="520" width="110" height="26" as="alternateBounds" />
          </mxGeometry>
        </mxCell>
        <mxCell id="HDqix5Ern4VF48CfTh6k-2" value="+ field: type" style="text;strokeColor=none;fillColor=none;align=left;verticalAlign=top;spacingLeft=4;spacingRight=4;overflow=hidden;rotatable=0;points=[[0,0.5],[1,0.5]];portConstraint=eastwest;" parent="HDqix5Ern4VF48CfTh6k-1" vertex="1">
          <mxGeometry y="26" width="160" height="26" as="geometry" />
        </mxCell>
        <mxCell id="HDqix5Ern4VF48CfTh6k-3" value="" style="line;strokeWidth=1;fillColor=none;align=left;verticalAlign=middle;spacingTop=-1;spacingLeft=3;spacingRight=3;rotatable=0;labelPosition=right;points=[];portConstraint=eastwest;" parent="HDqix5Ern4VF48CfTh6k-1" vertex="1">
          <mxGeometry y="52" width="160" height="8" as="geometry" />
        </mxCell>
        <mxCell id="HDqix5Ern4VF48CfTh6k-4" value="+ attack()" style="text;strokeColor=none;fillColor=none;align=left;verticalAlign=top;spacingLeft=4;spacingRight=4;overflow=hidden;rotatable=0;points=[[0,0.5],[1,0.5]];portConstraint=eastwest;" parent="HDqix5Ern4VF48CfTh6k-1" vertex="1">
          <mxGeometry y="60" width="160" height="30" as="geometry" />
        </mxCell>
        <mxCell id="HDqix5Ern4VF48CfTh6k-5" value="Slowly" style="swimlane;fontStyle=1;align=center;verticalAlign=top;childLayout=stackLayout;horizontal=1;startSize=26;horizontalStack=0;resizeParent=1;resizeParentMax=0;resizeLast=0;collapsible=1;marginBottom=0;" parent="WIyWlLk6GJQsqaUBKTNV-1" vertex="1">
          <mxGeometry x="1400" y="1020" width="160" height="90" as="geometry">
            <mxRectangle x="1200" y="520" width="110" height="26" as="alternateBounds" />
          </mxGeometry>
        </mxCell>
        <mxCell id="HDqix5Ern4VF48CfTh6k-6" value="+ field: type" style="text;strokeColor=none;fillColor=none;align=left;verticalAlign=top;spacingLeft=4;spacingRight=4;overflow=hidden;rotatable=0;points=[[0,0.5],[1,0.5]];portConstraint=eastwest;" parent="HDqix5Ern4VF48CfTh6k-5" vertex="1">
          <mxGeometry y="26" width="160" height="26" as="geometry" />
        </mxCell>
        <mxCell id="HDqix5Ern4VF48CfTh6k-7" value="" style="line;strokeWidth=1;fillColor=none;align=left;verticalAlign=middle;spacingTop=-1;spacingLeft=3;spacingRight=3;rotatable=0;labelPosition=right;points=[];portConstraint=eastwest;" parent="HDqix5Ern4VF48CfTh6k-5" vertex="1">
          <mxGeometry y="52" width="160" height="8" as="geometry" />
        </mxCell>
        <mxCell id="HDqix5Ern4VF48CfTh6k-8" value="+ attack()" style="text;strokeColor=none;fillColor=none;align=left;verticalAlign=top;spacingLeft=4;spacingRight=4;overflow=hidden;rotatable=0;points=[[0,0.5],[1,0.5]];portConstraint=eastwest;" parent="HDqix5Ern4VF48CfTh6k-5" vertex="1">
          <mxGeometry y="60" width="160" height="30" as="geometry" />
        </mxCell>
        <mxCell id="yFMV36JGLBhfF26aKYtW-0" value="Actor" style="shape=umlActor;verticalLabelPosition=bottom;verticalAlign=top;html=1;outlineConnect=0;" parent="WIyWlLk6GJQsqaUBKTNV-1" vertex="1">
          <mxGeometry x="1240" y="430" width="30" height="60" as="geometry" />
        </mxCell>
        <mxCell id="yFMV36JGLBhfF26aKYtW-2" value="" style="endArrow=none;dashed=1;html=1;" parent="WIyWlLk6GJQsqaUBKTNV-1" edge="1">
          <mxGeometry width="50" height="50" relative="1" as="geometry">
            <mxPoint x="1260" y="1111" as="sourcePoint" />
            <mxPoint x="1260" y="520" as="targetPoint" />
            <Array as="points" />
          </mxGeometry>
        </mxCell>
        <mxCell id="yFMV36JGLBhfF26aKYtW-3" value="" style="endArrow=open;endFill=1;endSize=12;html=1;" parent="WIyWlLk6GJQsqaUBKTNV-1" target="nteBSBuD71TsZTLeSuAN-41" edge="1">
          <mxGeometry width="160" relative="1" as="geometry">
            <mxPoint x="1260" y="620" as="sourcePoint" />
            <mxPoint x="900" y="700" as="targetPoint" />
          </mxGeometry>
        </mxCell>
        <mxCell id="6SKt-l0n7SF471skI_Mj-0" value="click start button" style="edgeLabel;html=1;align=center;verticalAlign=middle;resizable=0;points=[];" connectable="0" vertex="1" parent="WIyWlLk6GJQsqaUBKTNV-1">
          <mxGeometry x="752" y="620" as="geometry">
            <mxPoint x="-6" y="1" as="offset" />
          </mxGeometry>
        </mxCell>
      </root>
    </mxGraphModel>
  </diagram>
</mxfile>
